<svg width="356" height="100" viewBox="0 0 356 100" class="css-1j8o68f"><defs id="SvgjsDefs1001"></defs><g id="SvgjsG1007" featurekey="symbolFeature-0" transform="matrix(1.1778563862080667,0,0,1.1778563862080667,-8.89281594052918,-8.89281594052918)" fill="#000000"><g xmlns="http://www.w3.org/2000/svg"><path fill="none" d="M85.262,40.783l-3.75-3.75H62.023l-5.74,9.943H43.717l-6.281-10.88l6.281-10.881h12.566l5.74,9.944h17.615   L59.217,14.738c-2.463-2.462-5.734-3.817-9.217-3.817c-3.482,0-6.755,1.355-9.217,3.817L14.739,40.783   C12.277,43.245,10.92,46.517,10.92,50c0,3.483,1.356,6.754,3.818,9.217l4.123,4.123h19.115l5.74-9.943h12.566l6.281,10.881   l-6.281,10.881H43.717l-5.74-9.945H20.735l20.048,20.049c2.462,2.461,5.734,3.818,9.217,3.818c3.481,0,6.754-1.357,9.217-3.818   l26.045-26.045C87.723,56.754,89.08,53.48,89.08,50C89.08,46.517,87.723,43.245,85.262,40.783z M71.844,58.32h-9.607l-4.182-7.242   H41.946l-4.182,7.242h-9.607L23.353,50l4.804-8.32h9.607l4.182,7.243h16.109l4.182-7.243h9.607L76.646,50L71.844,58.32z"></path><polygon fill="none" points="54.336,71.787 58.672,64.277 54.336,56.768 45.664,56.768 41.328,64.277 45.664,71.787  "></polygon><polygon fill="none" points="45.664,28.586 41.328,36.096 45.664,43.606 54.336,43.606 58.672,36.096 54.336,28.586  "></polygon><path d="M87.645,38.4L61.6,12.355C58.5,9.256,54.383,7.55,50,7.55c-4.382,0-8.502,1.706-11.6,4.805L12.356,38.4   C9.256,41.498,7.55,45.618,7.55,50c0,4.383,1.706,8.5,4.806,11.6L38.4,87.645c3.097,3.098,7.218,4.805,11.6,4.805   c4.383,0,8.502-1.707,11.6-4.805L87.645,61.6c3.098-3.098,4.805-7.217,4.805-11.6C92.449,45.618,90.742,41.497,87.645,38.4z    M85.262,59.217L59.217,85.262C56.754,87.723,53.48,89.08,50,89.08c-3.482,0-6.755-1.357-9.217-3.818L20.735,65.213h17.242   l5.74,9.945h12.566l6.281-10.881l-6.281-10.881H43.717l-5.74,9.943H18.862l-4.123-4.123C12.277,56.754,10.92,53.482,10.92,50   c0-3.482,1.356-6.755,3.818-9.217l26.044-26.044c2.462-2.462,5.734-3.817,9.217-3.817c3.483,0,6.754,1.355,9.217,3.817   L79.639,35.16H62.023l-5.74-9.944H43.717l-6.281,10.881l6.281,10.88h12.566l5.74-9.943h19.488l3.75,3.75   c2.461,2.462,3.818,5.734,3.818,9.217C89.08,53.48,87.723,56.754,85.262,59.217z M41.328,64.277l4.336-7.51h8.672l4.336,7.51   l-4.336,7.51h-8.672L41.328,64.277z M58.672,36.096l-4.336,7.51h-8.672l-4.336-7.51l4.336-7.51h8.672L58.672,36.096z"></path><polygon points="62.236,41.679 58.055,48.922 41.946,48.922 37.764,41.679 28.157,41.679 23.353,50 28.157,58.32 37.764,58.32    41.946,51.078 58.055,51.078 62.236,58.32 71.844,58.32 76.646,50 71.844,41.679  "></polygon></g></g><g id="SvgjsG1008" featurekey="textGroupContainer" transform="matrix(1,0,0,1,355,9)" fill="#000000"><rect xmlns="http://www.w3.org/2000/svg" y="0" height="1" width="1" opacity="0"></rect><rect xmlns="http://www.w3.org/2000/svg" y="0" x="-235" width="3" height="82"></rect></g><g id="SvgjsG1009" featurekey="vMvB0T-0" transform="matrix(2.942041961897019,0,0,2.942041961897019,137.47043286421382,11.75934460601324)" fill="#000000"><path d="M4.84 17.14 q-0.54 0 -0.8 -0.02 l-0.86 2.9 q-0.48 0.12 -1.34 0.12 q-0.96 0 -1.56 -0.22 l-0.1 -0.16 l4.4 -13.42 q0.78 -0.12 1.82 -0.12 q1.18 0 1.88 0.14 l4.32 13.44 q-0.7 0.38 -1.58 0.38 q-1.04 0 -1.46 -0.36 t-0.72 -1.38 l-0.38 -1.32 q-0.26 0.02 -0.78 0.02 l-2.84 0 z M4.78 14.620000000000001 l0.8 -0.02 l1.46 0 q0.1 0 0.35 0.01 t0.37 0.01 l-0.34 -1.24 q-0.48 -1.68 -1.1 -4.12 l-0.12 0 q-0.16 0.86 -0.96 3.82 z M23.119999999999997 19.12 q-0.64 0.52 -1.68 0.76 t-2.3 0.24 q-0.62 0 -1.79 -0.02 t-2.93 -0.06 l-0.14 -0.14 l0 -13.46 l0.14 -0.14 q1.16 -0.04 2.41 -0.06 t2.63 -0.02 q1.7 0 2.84 0.54 t1.82 1.48 t0.96 2.21 t0.28 2.73 q0 2 -0.46 3.46 t-1.78 2.48 z M19.439999999999998 17.62 q2.64 0 2.64 -4.44 q0 -4.46 -2.64 -4.46 l-1.13 0 t-0.85 -0.02 l0 8.94 q0.36 -0.02 0.85 -0.02 l1.13 0 z M35.120000000000005 11.64 l-0.02 -1.48 l0 -3.82 q0.62 -0.12 1.61 -0.12 t1.59 0.12 l0 13.66 q-0.64 0.12 -1.6 0.12 t-1.6 -0.12 l0 -4.24 l0.02 -1.48 l-1 0.02 l-2.32 0 l-1 -0.02 l0.02 1.48 l0 4.24 q-0.62 0.12 -1.6 0.12 t-1.6 -0.12 l0 -13.66 q0.62 -0.12 1.6 -0.12 t1.6 0.12 l0 3.82 l-0.02 1.48 l1 -0.02 l2.32 0 z M44.66 17.14 q-0.54 0 -0.8 -0.02 l-0.86 2.9 q-0.48 0.12 -1.34 0.12 q-0.96 0 -1.56 -0.22 l-0.1 -0.16 l4.4 -13.42 q0.78 -0.12 1.82 -0.12 q1.18 0 1.88 0.14 l4.32 13.44 q-0.7 0.38 -1.58 0.38 q-1.04 0 -1.46 -0.36 t-0.72 -1.38 l-0.38 -1.32 q-0.26 0.02 -0.78 0.02 l-2.84 0 z M44.6 14.620000000000001 l0.8 -0.02 l1.46 0 q0.1 0 0.35 0.01 t0.37 0.01 l-0.34 -1.24 q-0.48 -1.68 -1.1 -4.12 l-0.12 0 q-0.16 0.86 -0.96 3.82 z M53.68 19.96 l1.06 -13.6 q0.88 -0.16 2.08 -0.16 t2.1 0.16 l1.18 4.9 q0.7 3.32 0.74 3.62 l0.14 0 q0.08 -0.5 0.74 -3.62 l1.2 -4.9 q0.88 -0.16 2.08 -0.16 t2.1 0.16 l1.06 13.6 q-0.62 0.16 -1.53 0.16 t-1.49 -0.1 l-0.32 -5.56 q-0.14 -3.32 -0.16 -4.62 l-0.12 0 l-1.98 8.14 q-0.72 0.12 -1.65 0.12 t-1.65 -0.12 l-1.96 -8.14 l-0.14 0 q0 1.78 -0.16 4.62 l-0.3 5.56 q-0.58 0.1 -1.49 0.1 t-1.53 -0.16 z"></path></g></svg>