<svg viewBox="0 0 330 100" preserveAspectRatio="xMidYMid meet" class="css-g5ufxp" id="fhhggdbh"><defs id="SvgjsDefs1001"></defs><g id="SvgjsG1007" featurekey="symbolContainer" transform="matrix(1,0,0,1,0,0)" fill="#111"><rect width="110" height="100" rx="8"></rect></g><g id="SvgjsG1008" featurekey="symbolFeature-0" transform="matrix(0.8244994703456466,0,0,0.8244994703456466,13.775028841629574,8.775028841629574)" fill="#fff"><g xmlns="http://www.w3.org/2000/svg"><path fill="none" d="M85.262,40.783l-3.75-3.75H62.023l-5.74,9.943H43.717l-6.281-10.88l6.281-10.881h12.566l5.74,9.944h17.615   L59.217,14.738c-2.463-2.462-5.734-3.817-9.217-3.817c-3.482,0-6.755,1.355-9.217,3.817L14.739,40.783   C12.277,43.245,10.92,46.517,10.92,50c0,3.483,1.356,6.754,3.818,9.217l4.123,4.123h19.115l5.74-9.943h12.566l6.281,10.881   l-6.281,10.881H43.717l-5.74-9.945H20.735l20.048,20.049c2.462,2.461,5.734,3.818,9.217,3.818c3.481,0,6.754-1.357,9.217-3.818   l26.045-26.045C87.723,56.754,89.08,53.48,89.08,50C89.08,46.517,87.723,43.245,85.262,40.783z M71.844,58.32h-9.607l-4.182-7.242   H41.946l-4.182,7.242h-9.607L23.353,50l4.804-8.32h9.607l4.182,7.243h16.109l4.182-7.243h9.607L76.646,50L71.844,58.32z"></path><polygon fill="none" points="54.336,71.787 58.672,64.277 54.336,56.768 45.664,56.768 41.328,64.277 45.664,71.787  "></polygon><polygon fill="none" points="45.664,28.586 41.328,36.096 45.664,43.606 54.336,43.606 58.672,36.096 54.336,28.586  "></polygon><path d="M87.645,38.4L61.6,12.355C58.5,9.256,54.383,7.55,50,7.55c-4.382,0-8.502,1.706-11.6,4.805L12.356,38.4   C9.256,41.498,7.55,45.618,7.55,50c0,4.383,1.706,8.5,4.806,11.6L38.4,87.645c3.097,3.098,7.218,4.805,11.6,4.805   c4.383,0,8.502-1.707,11.6-4.805L87.645,61.6c3.098-3.098,4.805-7.217,4.805-11.6C92.449,45.618,90.742,41.497,87.645,38.4z    M85.262,59.217L59.217,85.262C56.754,87.723,53.48,89.08,50,89.08c-3.482,0-6.755-1.357-9.217-3.818L20.735,65.213h17.242   l5.74,9.945h12.566l6.281-10.881l-6.281-10.881H43.717l-5.74,9.943H18.862l-4.123-4.123C12.277,56.754,10.92,53.482,10.92,50   c0-3.482,1.356-6.755,3.818-9.217l26.044-26.044c2.462-2.462,5.734-3.817,9.217-3.817c3.483,0,6.754,1.355,9.217,3.817   L79.639,35.16H62.023l-5.74-9.944H43.717l-6.281,10.881l6.281,10.88h12.566l5.74-9.943h19.488l3.75,3.75   c2.461,2.462,3.818,5.734,3.818,9.217C89.08,53.48,87.723,56.754,85.262,59.217z M41.328,64.277l4.336-7.51h8.672l4.336,7.51   l-4.336,7.51h-8.672L41.328,64.277z M58.672,36.096l-4.336,7.51h-8.672l-4.336-7.51l4.336-7.51h8.672L58.672,36.096z"></path><polygon points="62.236,41.679 58.055,48.922 41.946,48.922 37.764,41.679 28.157,41.679 23.353,50 28.157,58.32 37.764,58.32    41.946,51.078 58.055,51.078 62.236,58.32 71.844,58.32 76.646,50 71.844,41.679  "></polygon></g></g><g id="SvgjsG1009" featurekey="nameFeature-0" transform="matrix(2.1715017891795023,0,0,2.1715017891795023,127.78408790157135,-4.930323473779936)" fill="#111"><path d="M9.8128 40 c-0.5632 0 -1.0208 -0.45796 -1.0208 -1.0212 c0 -0.38398 0.21238 -0.7184 0.52596 -0.8924 l3.358 -1.9408 l0 -12.293 l-2.864 -1.6552 l-6.7476 3.9004 l0 3.9016 c0 0.5632 -0.4568 1.02 -1.02 1.02 s-1.02 -0.4568 -1.02 -1.02 l0 -4.2684 c0 -0.5624 0.21442 -0.934 0.7012 -1.2156 l7.3844 -4.2684 c0.24359 -0.14078 0.4728 -0.21117 0.70204 -0.21117 s0.45844 0.070392 0.70204 0.21117 l3.5008 2.0236 c0.4872 0.2816 0.7016 0.6532 0.7016 1.2156 l0 13.027 c0 0.5624 -0.21442 0.934 -0.7012 1.2156 l-3.6772 2.1256 c-0.15359 0.092384 -0.3332 0.14559 -0.5252 0.14559 z M2.0384 39.9988281 l0.0028516 0.00046876 c-0.6728 0 -1.0208 -0.5924 -1.0208 -1.0252 l0.0048048 -4.2644 c0.00078124 -0.5624 0.21438 -0.934 0.70116 -1.2156 l3.6772 -2.1256 c0.15359 -0.092384 0.3332 -0.14559 0.5252 -0.14559 c0.5632 0 1.02 0.4568 1.02 1.02 c0 0.38398 -0.21238 0.7184 -0.52596 0.8924 l-3.358 1.9408 l0 2.1336 l5.7276 -3.3108 l0 -6.6236 l-2.3388 1.352 c-0.15359 0.092384 -0.3332 0.14559 -0.5252 0.14559 c-0.5632 0 -1.02 -0.4568 -1.02 -1.02 c0 -0.38398 0.21558 -0.7132 0.52636 -0.89244 l3.8624 -2.2344 c0.15559 -0.089608 0.33238 -0.13723 0.512 -0.13723 c0.5504 0 1.0184 0.452 1.0184 1.0196 l0.004414 8.758 c0 0.5624 -0.2148 0.934 -0.7016 1.2112 l-7.58 4.384 c-0.15559 0.089608 -0.33238 0.13723 -0.512 0.13723 z M21.644000000000002 39.963594 l0.0037109 0.0011719 c-0.22922 0 -0.45844 -0.070392 -0.70204 -0.21117 l-3.5008 -2.0236 c-0.4868 -0.2816 -0.7012 -0.6532 -0.7012 -1.2156 l0 -8.5368 c0 -0.5624 0.21442 -0.934 0.7012 -1.2156 l7.0664 -4.0844 l0 -8.17 c0 -0.5624 0.21442 -0.934 0.7012 -1.2156 l3.6772 -2.1256 c0.15359 -0.092384 0.3332 -0.14559 0.5252 -0.14559 c0.5632 0 1.02 0.4568 1.02 1.02 c0 0.38398 -0.21238 0.7184 -0.52596 0.8924 l-3.358 1.9408 l0 8.17 c0 0.5624 -0.21442 0.934 -0.7012 1.2156 l-7.0664 4.0844 l0 7.8028 l2.864 1.6556 l6.7476 -3.9004 l0 -2.1336 l-6.2416 3.6064 c-0.15559 0.089608 -0.33238 0.13723 -0.512 0.13723 c-0.6728 0 -1.0208 -0.5924 -1.0208 -1.0252 l0.0048048 -4.2644 c0.00078124 -0.5624 0.21438 -0.934 0.70116 -1.2156 l3.6772 -2.1256 c0.15359 -0.092384 0.3332 -0.14559 0.5252 -0.14559 c0.5632 0 1.02 0.4568 1.02 1.02 c0 0.38398 -0.21238 0.7184 -0.52596 0.8924 l-3.358 1.9408 l0 2.1336 l6.2324 -3.6044 c0.15559 -0.089608 0.33238 -0.13723 0.512 -0.13723 c0.5504 0 1.0184 0.452 1.0184 1.0196 l0.004414 4.268 c0.00039062 0.5624 -0.2148 0.934 -0.7016 1.2116 l-7.3844 4.2724 c-0.24359 0.14078 -0.4728 0.21117 -0.70204 0.21117 z M29.415 40.0011719 c-0.5632 0 -1.0188 -0.4576 -1.0188 -1.0208 c0 -0.38398 0.21238 -0.7184 0.52596 -0.8924 l3.358 -1.9408 l0 -20.094 l-1.844 1.066 l0 8.3916 c0 0.5632 -0.4568 1.02 -1.02 1.02 s-1.02 -0.4568 -1.02 -1.02 l0 -8.7584 c0 -0.5624 0.21442 -0.934 0.7012 -1.2156 l3.6868 -2.1332 c0.15559 -0.089608 0.33238 -0.13723 0.512 -0.13723 c0.5504 0 1.0184 0.452 1.0184 1.0196 l0.004414 22.228 c0 0.5624 -0.21442 0.934 -0.7016 1.2156 l-3.6772 2.1256 c-0.15359 0.092384 -0.3332 0.14559 -0.5252 0.14559 z M52.896 37.7548 c-0.5632 0 -1.0192 -0.45684 -1.0192 -1.02 l0 -11.702 l-9.6116 5.556 l0 3.9016 c0 0.5632 -0.4568 1.02 -1.02 1.02 s-1.02 -0.4568 -1.02 -1.02 l0 -4.2684 c0 -0.5624 0.21442 -0.934 0.7012 -1.2156 l11.455 -6.6232 c0.15559 -0.089608 0.33238 -0.13723 0.512 -0.13723 c0.5504 0 1.0184 0.452 1.0184 1.0196 l0.004414 13.47 c0 0.5632 -0.4568 1.02 -1.02 1.02 z M49.012 39.999960938 c-0.5632 0 -1.0196 -0.4572 -1.0196 -1.0204 l0 -7.2124 l-2.3388 1.352 c-0.1532 0.092384 -0.33281 0.14559 -0.5248 0.14559 c-0.5632 0 -1.02 -0.4568 -1.02 -1.02 c0 -0.38398 0.21558 -0.71276 0.52596 -0.8924 l3.8624 -2.2344 c0.15559 -0.089608 0.33238 -0.13723 0.512 -0.13723 c0.5504 0 1.0184 0.452 1.0184 1.0196 l0.004414 8.9796 c0 0.5632 -0.4568 1.02 -1.02 1.02 z M41.2448 39.99957032 c-0.19199 0 -0.37199 -0.052032 -0.5252 -0.14441 l-3.6772 -2.1256 c-0.4868 -0.2816 -0.7012 -0.6532 -0.7012 -1.2156 l0 -22.007 c0 -0.5624 0.21442 -0.934 0.7012 -1.2156 l3.6772 -2.1256 c0.15359 -0.092384 0.3332 -0.14559 0.5252 -0.14559 c0.5632 0 1.02 0.4568 1.02 1.02 c0 0.38398 -0.21238 0.7184 -0.52596 0.8924 l-3.358 1.9408 l0 21.273 l3.358 1.9408 c0.31359 0.17398 0.52596 0.5084 0.52596 0.8924 c0 0.5632 -0.4568 1.02 -1.02 1.02 z M41.2444 26.531 c-0.5632 0 -1.0188 -0.45684 -1.0188 -1.02 l0 -8.7584 c0 -0.5624 0.21442 -0.934 0.7012 -1.2156 l3.6868 -2.1332 c0.15559 -0.089608 0.33238 -0.13723 0.512 -0.13723 c0.5504 0 1.0184 0.452 1.0184 1.0196 l0.004414 8.9796 c0 0.5632 -0.4568 1.02 -1.02 1.02 s-1.02 -0.4568 -1.02 -1.02 l0 -7.2124 l-1.844 1.066 l0 8.3916 c0 0.5632 -0.4568 1.02 -1.02 1.02 z M64.7328 40 c-0.5632 0 -1.0208 -0.45796 -1.0208 -1.0212 c0 -0.38398 0.21238 -0.7184 0.52596 -0.8924 l3.358 -1.9408 l0 -12.293 l-2.864 -1.6552 l-6.7476 3.9004 l0 3.9016 c0 0.5632 -0.4568 1.02 -1.02 1.02 s-1.02 -0.4568 -1.02 -1.02 l0 -4.2684 c0 -0.5624 0.21442 -0.934 0.7012 -1.2156 l7.3844 -4.2684 c0.24359 -0.14078 0.4728 -0.21117 0.70204 -0.21117 s0.45844 0.070392 0.70204 0.21117 l3.5008 2.0236 c0.4872 0.2816 0.7016 0.6532 0.7016 1.2156 l0 13.027 c0 0.5624 -0.21442 0.934 -0.7012 1.2156 l-3.6772 2.1256 c-0.15359 0.092384 -0.3332 0.14559 -0.5252 0.14559 z M56.958400000000005 39.9988281 l0.0028516 0.00046876 c-0.6728 0 -1.0208 -0.5924 -1.0208 -1.0252 l0.0048048 -4.2644 c0.00078124 -0.5624 0.21438 -0.934 0.70116 -1.2156 l3.6772 -2.1256 c0.15359 -0.092384 0.3332 -0.14559 0.5252 -0.14559 c0.5632 0 1.02 0.4568 1.02 1.02 c0 0.38398 -0.21238 0.7184 -0.52596 0.8924 l-3.358 1.9408 l0 2.1336 l5.7276 -3.3108 l0 -6.6236 l-2.3388 1.352 c-0.15359 0.092384 -0.3332 0.14559 -0.5252 0.14559 c-0.5632 0 -1.02 -0.4568 -1.02 -1.02 c0 -0.38398 0.21558 -0.7132 0.52636 -0.89244 l3.8624 -2.2344 c0.15559 -0.089608 0.33238 -0.13723 0.512 -0.13723 c0.5504 0 1.0184 0.452 1.0184 1.0196 l0.004414 8.758 c0 0.5624 -0.2148 0.934 -0.7016 1.2112 l-7.58 4.384 c-0.15559 0.089608 -0.33238 0.13723 -0.512 0.13723 z M72.6792 40 l0.005742 0.0012109 c-0.6728 0 -1.0208 -0.5924 -1.0208 -1.0252 l0.0048048 -15.489 c0 -0.5624 0.21442 -0.934 0.7012 -1.2156 l3.6772 -2.1256 c0.15359 -0.092384 0.3332 -0.14559 0.5252 -0.14559 c0.5632 0 1.02 0.4568 1.02 1.02 c0 0.38398 -0.21238 0.7184 -0.52596 0.8924 l-3.358 1.9408 l0 13.359 l1.844 -1.066 l0 -5.9248 c0 -0.5624 0.21442 -0.934 0.7012 -1.2156 l3.6868 -2.1332 c0.15559 -0.089608 0.33238 -0.13723 0.512 -0.13723 c0.36398 0 0.7 0.19398 0.882 0.50916 l0.13719 0.5104 l0.004414 9.4568 l1.844 -1.066 l0 -10.415 c0 -0.5624 0.21442 -0.934 0.7012 -1.2156 l7.5708 -4.378 c0.15559 -0.089608 0.33238 -0.13723 0.512 -0.13723 c0.5504 0 1.0184 0.452 1.0184 1.0196 l0 17.96 c0 0.6728 -0.5892 1.0208 -1.022 1.0208 c-0.1732 0 -0.3484 -0.043984 -0.5088 -0.1368 l-3.688 -2.1352 c-0.4868 -0.28199 -0.7016 -0.6532 -0.7016 -1.2156 l0 -8.7584 c0 -0.5632 0.4568 -1.02 1.02 -1.02 s1.02 0.4568 1.02 1.02 l0 8.3916 l1.844 1.066 l0 -14.424 l-5.7276 3.3108 l0 10.415 c0 0.5624 -0.21442 0.934 -0.7016 1.2152 l-3.696 2.1348 c-0.15559 0.089608 -0.33238 0.13723 -0.512 0.13723 c-0.6728 0 -1.0208 -0.5924 -1.0208 -1.0252 l0.0048048 -9.4532 l-1.844 1.066 l0 5.9248 c0 0.5624 -0.21442 0.934 -0.7016 1.2152 l-3.696 2.1348 c-0.15559 0.089608 -0.33238 0.13723 -0.512 0.13723 z M76.5744 26.53 c-0.5632 0 -1.02 -0.4568 -1.02 -1.02 c0 -0.38398 0.21238 -0.7184 0.52596 -0.8924 l7.7364 -4.472 c0.15359 -0.092384 0.3332 -0.14559 0.5252 -0.14559 c0.5632 0 1.02 0.4568 1.02 1.02 c0 0.38398 -0.21238 0.7184 -0.52596 0.8924 l-7.7364 4.472 c-0.15359 0.092384 -0.3332 0.14559 -0.5252 0.14559 z"></path></g></svg>